<svg version="1.1" xmlns="http://www.w3.org/2000/svg" width="2480" height="1024" viewBox="0 0 2480 1024">

<symbol id="icon-logo-on-dark" viewBox="0 0 78 32">
<path d="M534.388 205.799h-38.652v611.083h38.652v-611.083z" fill="#fff"></path>
<path d="M611.083 205.799h-38.652v611.083h38.652v-611.083z" fill="#fff"></path>
<path d="M460.77 205.799h-38.652v611.083h38.652v-611.083z" fill="#fff"></path>
<path d="M383.466 205.799h-38.652v611.083h38.652v-611.083z" fill="#fff"></path>
<path d="M305.542 205.799h-38.652v611.083h38.652v-611.083z" fill="#fff"></path>
<path d="M229.466 205.799h-38.652v611.083h38.652v-611.083z" fill="#fff"></path>
<path d="M153.38 205.799h-153.38v611.083h153.38v-611.083z" fill="#fff"></path>
<path d="M534.388 205.799h-534.388v128.225h534.388v-128.225z" fill="#fff"></path>
<path d="M350.018 434.036h-348.28v114.728h348.28v-114.728z" fill="#fff"></path>
<path d="M786.905 204.588v615.611h-92.883v-615.611h92.883zM879.847 820.199v-615.611h225.444c43.687 0 79.852 7.214 108.514 21.642 28.652 14.228 50.101 33.566 64.327 58.014 14.226 24.248 21.339 51.602 21.339 82.062 0 25.65-4.705 47.293-14.126 64.928-9.421 17.434-22.048 31.462-37.873 42.083-15.635 10.421-32.868 18.035-51.7 22.845v6.012c20.44 1.002 40.381 7.615 59.812 19.839 19.641 12.024 35.875 29.158 48.702 51.402 12.817 22.243 19.231 49.297 19.231 81.159 0 31.462-7.413 59.718-22.238 84.767-14.636 24.849-37.274 44.587-67.934 59.216-30.66 14.429-69.842 21.643-117.535 21.643h-235.964zM972.73 740.543h134.059c44.497 0 76.355-8.618 95.597-25.852 19.231-17.233 28.852-38.776 28.852-64.627 0-19.438-4.905-37.274-14.726-53.505s-23.847-29.158-42.089-38.777c-18.032-9.619-39.471-14.428-64.327-14.428h-137.366v197.188zM972.73 470.912h124.448c20.84 0 39.571-4.008 56.205-12.024 16.834-8.015 30.161-19.237 39.981-33.666 10.020-14.629 15.025-31.863 15.025-51.702 0-25.45-8.911-46.792-26.754-64.025-17.833-17.234-45.186-25.852-82.060-25.852h-126.846v187.269zM1443.37 820.199h-98.604l221.544-615.611h107.305l221.544 615.611h-98.604l-174.040-503.791h-4.805l-174.34 503.791zM1459.894 579.124h319.838v78.154h-319.838v-78.154zM2329.415 399.070c-5.804-18.235-13.627-34.567-23.447-48.996-9.611-14.629-21.139-27.054-34.566-37.274-13.427-10.42-28.752-18.336-45.985-23.747-17.033-5.411-35.775-8.115-56.215-8.115-34.666 0-65.926 8.917-93.778 26.752-27.863 17.836-49.901 43.987-66.135 78.454-16.034 34.268-24.047 76.251-24.047 125.948 0 49.898 8.112 92.081 24.346 126.549s38.482 60.619 66.735 78.453c28.252 17.836 60.421 26.753 96.486 26.753 33.467 0 62.629-6.813 87.475-20.44 25.046-13.627 44.387-32.865 58.013-57.714 13.826-25.050 20.74-54.507 20.74-88.374l24.047 4.509h-176.148v-76.65h241.984v70.038c0 51.702-11.029 96.59-33.068 134.664-21.849 37.875-52.099 67.132-90.781 87.773-38.472 20.64-82.559 30.961-132.261 30.961-55.706 0-104.608-12.825-146.687-38.475-41.879-25.651-74.547-62.022-97.994-109.115-23.447-47.293-35.166-103.403-35.166-168.331 0-49.097 6.813-93.184 20.44-132.261s32.768-72.241 57.414-99.495c24.846-27.454 54.007-48.396 87.475-62.824 33.657-14.629 70.431-21.944 110.312-21.944 33.268 0 64.227 4.909 92.879 14.729 28.862 9.819 54.507 23.747 76.955 41.782 22.648 18.035 41.38 39.478 56.215 64.327 14.826 24.648 24.846 52.002 30.051 82.061h-95.287z" fill="#fff"/>
</symbol>
<symbol id="icon-6" viewBox="0 0 32 32">
<path d="M0 1.185c0-0.655 0.531-1.185 1.185-1.185h29.63c0.655 0 1.185 0.531 1.185 1.185s-0.531 1.185-1.185 1.185h-29.63c-0.655 0-1.185-0.531-1.185-1.185zM0 7.111c0-0.655 0.531-1.185 1.185-1.185h29.63c0.655 0 1.185 0.531 1.185 1.185s-0.531 1.185-1.185 1.185h-29.63c-0.655 0-1.185-0.531-1.185-1.185zM1.185 11.852c-0.655 0-1.185 0.531-1.185 1.185s0.531 1.185 1.185 1.185h29.63c0.655 0 1.185-0.531 1.185-1.185s-0.531-1.185-1.185-1.185h-29.63z"></path>
<path d="M1.185 23.704h29.63c0.655 0 1.185 0.531 1.185 1.185s-0.531 1.185-1.185 1.185h-29.63c-0.655 0-1.185-0.531-1.185-1.185s0.531-1.185 1.185-1.185z"></path>
<path d="M1.185 17.778h13.037c0.655 0 1.185 0.531 1.185 1.185s-0.531 1.185-1.185 1.185h-13.037c-0.655 0-1.185-0.531-1.185-1.185s0.531-1.185 1.185-1.185z"></path>
<path d="M17.778 17.778h13.037c0.655 0 1.185 0.531 1.185 1.185s-0.531 1.185-1.185 1.185h-13.037c-0.655 0-1.185-0.531-1.185-1.185s0.531-1.185 1.185-1.185z"></path>
<path d="M1.185 29.63h13.037c0.655 0 1.185 0.531 1.185 1.185s-0.531 1.185-1.185 1.185h-13.037c-0.655 0-1.185-0.531-1.185-1.185s0.531-1.185 1.185-1.185z"></path>
<path d="M17.778 29.63h13.037c0.655 0 1.185 0.531 1.185 1.185s-0.531 1.185-1.185 1.185h-13.037c-0.655 0-1.185-0.531-1.185-1.185s0.531-1.185 1.185-1.185z"></path>
</symbol>

</svg>
