<svg xmlns="http://www.w3.org/2000/svg" style="display:none;">

<symbol id="icon-logo-on-dark" viewBox="0 0 78 32">
<path d="M16.7 6.431h-1.208v19.096h1.208v-19.096z"></path>
<path d="M19.096 6.431h-1.208v19.096h1.208v-19.096z"></path>
<path d="M14.399 6.431h-1.208v19.096h1.208v-19.096z"></path>
<path d="M11.983 6.431h-1.208v19.096h1.208v-19.096z"></path>
<path d="M9.548 6.431h-1.208v19.096h1.208v-19.096z"></path>
<path d="M7.171 6.431h-1.208v19.096h1.208v-19.096z"></path>
<path d="M4.793 6.431h-4.793v19.096h4.793v-19.096z"></path>
<path d="M16.7 6.431h-16.7v4.007h16.7v-4.007z"></path>
<path d="M10.938 13.564h-10.884v3.585h10.884v-3.585z"></path>
<path d="M24.591 6.393v19.238h-2.903v-19.238h2.903zM27.495 25.631v-19.238h7.045c1.365 0 2.495 0.225 3.391 0.676 0.895 0.445 1.566 1.049 2.010 1.813 0.445 0.758 0.667 1.613 0.667 2.564 0 0.802-0.147 1.478-0.441 2.029-0.294 0.545-0.689 0.983-1.184 1.315-0.489 0.326-1.027 0.564-1.616 0.714v0.188c0.639 0.031 1.262 0.238 1.869 0.62 0.614 0.376 1.121 0.911 1.522 1.606s0.601 1.541 0.601 2.536c0 0.983-0.232 1.866-0.695 2.649-0.457 0.777-1.165 1.393-2.123 1.851-0.958 0.451-2.183 0.676-3.673 0.676h-7.374zM30.398 23.142h4.189c1.391 0 2.386-0.269 2.987-0.808s0.902-1.212 0.902-2.020c0-0.607-0.153-1.165-0.46-1.672s-0.745-0.911-1.315-1.212c-0.563-0.301-1.233-0.451-2.010-0.451h-4.293v6.162zM30.398 14.716h3.889c0.651 0 1.237-0.125 1.756-0.376 0.526-0.25 0.943-0.601 1.249-1.052 0.313-0.457 0.47-0.996 0.47-1.616 0-0.795-0.278-1.462-0.836-2.001s-1.412-0.808-2.564-0.808h-3.964v5.852zM45.105 25.631h-3.081l6.923-19.238h3.353l6.923 19.238h-3.081l-5.439-15.743h-0.15l-5.448 15.743zM45.622 18.098h9.995v2.442h-9.995v-2.442zM72.794 12.471c-0.181-0.57-0.426-1.080-0.733-1.531-0.3-0.457-0.661-0.845-1.080-1.165-0.42-0.326-0.898-0.573-1.437-0.742-0.532-0.169-1.118-0.254-1.757-0.254-1.083 0-2.060 0.279-2.931 0.836s-1.559 1.375-2.067 2.452c-0.501 1.071-0.751 2.383-0.751 3.936 0 1.559 0.254 2.878 0.761 3.955s1.203 1.894 2.085 2.452c0.883 0.557 1.888 0.836 3.015 0.836 1.046 0 1.957-0.213 2.734-0.639 0.783-0.426 1.387-1.027 1.813-1.804 0.432-0.783 0.648-1.703 0.648-2.762l0.751 0.141h-5.505v-2.395h7.562v2.189c0 1.616-0.345 3.018-1.033 4.208-0.683 1.184-1.628 2.098-2.837 2.743-1.202 0.645-2.58 0.968-4.133 0.968-1.741 0-3.269-0.401-4.584-1.202-1.309-0.802-2.33-1.938-3.062-3.41-0.733-1.478-1.099-3.231-1.099-5.26 0-1.534 0.213-2.912 0.639-4.133s1.024-2.258 1.794-3.109c0.776-0.858 1.688-1.512 2.734-1.963 1.052-0.457 2.201-0.686 3.447-0.686 1.040 0 2.007 0.153 2.902 0.46 0.902 0.307 1.703 0.742 2.405 1.306 0.708 0.564 1.293 1.234 1.757 2.010 0.463 0.77 0.776 1.625 0.939 2.564h-2.978z"></path>
</symbol>
<symbol id="icon-6" viewBox="0 0 32 32">
<path d="M0 1.185c0-0.655 0.531-1.185 1.185-1.185h29.63c0.655 0 1.185 0.531 1.185 1.185s-0.531 1.185-1.185 1.185h-29.63c-0.655 0-1.185-0.531-1.185-1.185zM0 7.111c0-0.655 0.531-1.185 1.185-1.185h29.63c0.655 0 1.185 0.531 1.185 1.185s-0.531 1.185-1.185 1.185h-29.63c-0.655 0-1.185-0.531-1.185-1.185zM1.185 11.852c-0.655 0-1.185 0.531-1.185 1.185s0.531 1.185 1.185 1.185h29.63c0.655 0 1.185-0.531 1.185-1.185s-0.531-1.185-1.185-1.185h-29.63z"></path>
<path d="M1.185 23.704h29.63c0.655 0 1.185 0.531 1.185 1.185s-0.531 1.185-1.185 1.185h-29.63c-0.655 0-1.185-0.531-1.185-1.185s0.531-1.185 1.185-1.185z"></path>
<path d="M1.185 17.778h13.037c0.655 0 1.185 0.531 1.185 1.185s-0.531 1.185-1.185 1.185h-13.037c-0.655 0-1.185-0.531-1.185-1.185s0.531-1.185 1.185-1.185z"></path>
<path d="M17.778 17.778h13.037c0.655 0 1.185 0.531 1.185 1.185s-0.531 1.185-1.185 1.185h-13.037c-0.655 0-1.185-0.531-1.185-1.185s0.531-1.185 1.185-1.185z"></path>
<path d="M1.185 29.63h13.037c0.655 0 1.185 0.531 1.185 1.185s-0.531 1.185-1.185 1.185h-13.037c-0.655 0-1.185-0.531-1.185-1.185s0.531-1.185 1.185-1.185z"></path>
<path d="M17.778 29.63h13.037c0.655 0 1.185 0.531 1.185 1.185s-0.531 1.185-1.185 1.185h-13.037c-0.655 0-1.185-0.531-1.185-1.185s0.531-1.185 1.185-1.185z"></path>
</symbol>

</svg>
